<svg width="900" height="200" version="1.1" viewBox="0 0 900 200" xmlns="http://www.w3.org/2000/svg" xmlns:xlink="http://www.w3.org/1999/xlink">
	<defs>
		<radialGradient id="gr" cx="389" cy="113" r="430" gradientTransform="matrix(1.52 -.135 .0443 .397 -220 111)" gradientUnits="userSpaceOnUse">
			<stop stop-color="#b975ff" offset="0"/>
			<stop stop-color="#f600d6" stop-opacity="0" offset="1"/>
		</radialGradient>
	</defs>
	<g transform="matrix(.846 0 0 1.06 56.3 -.0207)" fill="url(#gr)">
		<path d="m182 86.3q-3.03 0-4.71 2.24t-1.67 6.31q0 4.05 1.67 6.29 1.67 2.24 4.71 2.24 3.05 0 4.72-2.24 1.67-2.24 1.67-6.29 0-4.07-1.67-6.31t-4.72-2.24zm0-4.81q6.2 0 9.72 3.55 3.52 3.55 3.52 9.81 0 6.24-3.52 9.79-3.52 3.55-9.72 3.55-6.19 0-9.72-3.55-3.52-3.55-3.52-9.79 0-6.26 3.52-9.81 3.53-3.55 9.72-3.55z"/>
		<path d="m219 96v11.8h-6.2v-9q0-2.5-0.121-3.45-0.103-0.948-0.379-1.4-0.362-0.603-0.982-0.931-0.62-0.345-1.41-0.345-1.93 0-3.03 1.5-1.1 1.48-1.1 4.12v9.5h-6.17v-19.3h6.17v2.83q1.4-1.69 2.96-2.48 1.57-0.81 3.46-0.81 3.34 0 5.07 2.05 1.74 2.05 1.74 5.96z"/>
		<path d="m225 80.9h6.17v26.8h-6.17z"/>
		<path d="m237 88.4h6.17v19.3h-6.17zm0-7.51h6.17v5.03h-6.17z"/>
		<path d="m269 96v11.8h-6.2v-9q0-2.5-0.121-3.45-0.103-0.948-0.379-1.4-0.362-0.603-0.982-0.931-0.62-0.345-1.41-0.345-1.93 0-3.03 1.5-1.1 1.48-1.1 4.12v9.5h-6.17v-19.3h6.17v2.83q1.4-1.69 2.96-2.48 1.57-0.81 3.46-0.81 3.34 0 5.07 2.05 1.74 2.05 1.74 5.96z"/>
		<path d="m294 98v1.76h-14.4q0.224 2.17 1.57 3.26 1.34 1.09 3.76 1.09 1.95 0 3.98-0.569 2.05-0.586 4.21-1.76v4.76q-2.19 0.827-4.38 1.24-2.19 0.431-4.38 0.431-5.24 0-8.15-2.65-2.9-2.67-2.9-7.48 0-4.72 2.84-7.43 2.86-2.71 7.86-2.71 4.55 0 7.27 2.74 2.74 2.74 2.74 7.33zm-6.34-2.05q0-1.76-1.03-2.83-1.02-1.09-2.67-1.09-1.79 0-2.91 1.02-1.12 1-1.4 2.9z"/>
		<path d="m322 90.6 7.05 7.76q0.913-1.21 1.38-2.71 0.483-1.5 0.569-3.4h5.36q-0.259 3.14-1.22 5.58-0.948 2.45-2.65 4.29l5.05 5.55h-7.31l-1.69-1.88q-1.81 1.21-3.81 1.79-2 0.586-4.24 0.586-4.53 0-7.34-2.38-2.79-2.4-2.79-6.17 0-2.52 1.22-4.45 1.24-1.95 4.03-3.77-0.724-0.913-1.07-1.83-0.345-0.913-0.345-1.91 0-2.81 2.19-4.5 2.19-1.69 5.83-1.69 1.57 0 3.26 0.259 1.71 0.241 3.55 0.741v4.79q-1.62-0.827-3.07-1.22-1.45-0.396-2.83-0.396-1.33 0-2.07 0.517-0.724 0.5-0.724 1.43 0 0.586 0.414 1.34 0.431 0.741 1.26 1.65zm-3.43 4.27q-1.12 0.81-1.69 1.84-0.569 1.02-0.569 2.24 0 1.98 1.47 3.38t3.52 1.4q1.15 0 2.15-0.345 1-0.362 1.86-1.07z"/>
		<path d="m366 86.3q-3.03 0-4.71 2.24-1.67 2.24-1.67 6.31 0 4.05 1.67 6.29 1.67 2.24 4.71 2.24 3.05 0 4.72-2.24 1.67-2.24 1.67-6.29 0-4.07-1.67-6.31t-4.72-2.24zm0-4.81q6.2 0 9.72 3.55 3.52 3.55 3.52 9.81 0 6.24-3.52 9.79t-9.72 3.55q-6.19 0-9.72-3.55-3.52-3.55-3.52-9.79 0-6.26 3.52-9.81 3.53-3.55 9.72-3.55z"/>
		<path d="m397 80.9v4.05h-3.41q-1.31 0-1.83 0.465-0.517 0.483-0.517 1.65v1.34h7.07v-1.34q0-3.15 1.76-4.65 1.76-1.52 5.45-1.52h12.3v26.8h-6.22v-22.8h-4.72q-1.31 0-1.83 0.465-0.517 0.483-0.517 1.65v1.34h4.84v4.41h-4.84v14.9h-6.17v-14.9h-7.07v14.9h-6.17v-14.9h-3.07v-4.41h3.07v-1.34q0-3.15 1.76-4.65 1.76-1.52 5.45-1.52z"/>
		<path d="m423 88.4h6.17v19.3h-6.17zm0-7.51h6.17v5.03h-6.17z"/>
		<path d="m455 96v11.8h-6.2v-9q0-2.5-0.121-3.45-0.103-0.948-0.379-1.4-0.362-0.603-0.982-0.931-0.62-0.345-1.41-0.345-1.93 0-3.03 1.5-1.1 1.48-1.1 4.12v9.5h-6.17v-19.3h6.17v2.83q1.4-1.69 2.96-2.48 1.57-0.81 3.46-0.81 3.34 0 5.07 2.05 1.74 2.05 1.74 5.96z"/>
		<path d="m480 98v1.76h-14.4q0.224 2.17 1.57 3.26 1.34 1.09 3.76 1.09 1.95 0 3.98-0.569 2.05-0.586 4.21-1.76v4.76q-2.19 0.827-4.38 1.24-2.19 0.431-4.38 0.431-5.24 0-8.15-2.65-2.9-2.67-2.9-7.48 0-4.72 2.84-7.43 2.86-2.71 7.86-2.71 4.55 0 7.27 2.74 2.74 2.74 2.74 7.33zm-6.34-2.05q0-1.76-1.03-2.83-1.02-1.09-2.67-1.09-1.79 0-2.91 1.02-1.12 1-1.4 2.9z"/>
		<path d="m497 82h17.9v5.02h-11.3v4.79h10.6v5.02h-10.6v10.9h-6.64z"/>
		<path d="m539 98v1.76h-14.4q0.224 2.17 1.57 3.26 1.34 1.09 3.76 1.09 1.95 0 3.98-0.569 2.05-0.586 4.21-1.76v4.76q-2.19 0.827-4.38 1.24-2.19 0.431-4.38 0.431-5.24 0-8.15-2.65-2.9-2.67-2.9-7.48 0-4.72 2.84-7.43 2.86-2.71 7.86-2.71 4.55 0 7.27 2.74 2.74 2.74 2.74 7.33zm-6.34-2.05q0-1.76-1.03-2.83-1.02-1.09-2.67-1.09-1.79 0-2.91 1.02-1.12 1-1.4 2.9z"/>
		<path d="m552 99q-1.93 0-2.91 0.655-0.965 0.655-0.965 1.93 0 1.17 0.776 1.84 0.793 0.655 2.19 0.655 1.74 0 2.93-1.24 1.19-1.26 1.19-3.14v-0.707zm9.43-2.33v11h-6.22v-2.86q-1.24 1.76-2.79 2.57-1.55 0.793-3.77 0.793-3 0-4.88-1.74-1.86-1.76-1.86-4.55 0-3.4 2.33-4.98 2.34-1.59 7.34-1.59h3.64v-0.483q0-1.47-1.15-2.14-1.15-0.689-3.6-0.689-1.98 0-3.69 0.396-1.71 0.396-3.17 1.19v-4.71q1.98-0.483 3.98-0.724 2-0.259 4-0.259 5.22 0 7.53 2.07 2.33 2.05 2.33 6.69z"/>
		<path d="m574 82.9v5.48h6.36v4.41h-6.36v8.19q0 1.34 0.534 1.83 0.534 0.465 2.12 0.465h3.17v4.41h-5.29q-3.65 0-5.19-1.52-1.52-1.53-1.52-5.19v-8.19h-3.07v-4.41h3.07v-5.48z"/>
		<path d="m584 100v-11.8h6.2v1.93q0 1.57-0.0172 3.95-0.0172 2.36-0.0172 3.15 0 2.33 0.121 3.36 0.121 1.02 0.414 1.48 0.379 0.603 0.982 0.931 0.62 0.327 1.41 0.327 1.93 0 3.03-1.48 1.1-1.48 1.1-4.12v-9.53h6.17v19.3h-6.17v-2.79q-1.4 1.69-2.96 2.5-1.55 0.793-3.43 0.793-3.34 0-5.1-2.05-1.74-2.05-1.74-5.96z"/>
		<path d="m624 93.7q-0.81-0.379-1.62-0.552-0.793-0.19-1.6-0.19-2.38 0-3.67 1.53-1.28 1.52-1.28 4.36v8.89h-6.17v-19.3h6.17v3.17q1.19-1.9 2.72-2.76 1.55-0.879 3.71-0.879 0.31 0 0.672 0.0345 0.362 0.0172 1.05 0.103z"/>
		<path d="m646 98v1.76h-14.4q0.224 2.17 1.57 3.26 1.34 1.09 3.76 1.09 1.95 0 3.98-0.569 2.05-0.586 4.21-1.76v4.76q-2.19 0.827-4.38 1.24-2.19 0.431-4.38 0.431-5.24 0-8.15-2.65-2.9-2.67-2.9-7.48 0-4.72 2.84-7.43 2.86-2.71 7.86-2.71 4.55 0 7.27 2.74 2.74 2.74 2.74 7.33zm-6.34-2.05q0-1.76-1.03-2.83-1.02-1.09-2.67-1.09-1.79 0-2.91 1.02-1.12 1-1.4 2.9z"/>
		<path d="m681 82.8v5.45q-2.12-0.948-4.14-1.43-2.02-0.483-3.81-0.483-2.38 0-3.52 0.655-1.14 0.655-1.14 2.03 0 1.03 0.758 1.62 0.776 0.569 2.79 0.982l2.83 0.569q4.29 0.862 6.1 2.62 1.81 1.76 1.81 5 0 4.26-2.53 6.34-2.52 2.07-7.7 2.07-2.45 0-4.91-0.465t-4.93-1.38v-5.6q2.46 1.31 4.76 1.98 2.31 0.655 4.45 0.655 2.17 0 3.33-0.724t1.15-2.07q0-1.21-0.793-1.86-0.776-0.655-3.12-1.17l-2.57-0.569q-3.86-0.827-5.65-2.64-1.78-1.81-1.78-4.88 0-3.84 2.48-5.91 2.48-2.07 7.14-2.07 2.12 0 4.36 0.327 2.24 0.31 4.64 0.948z"/>
		<path d="m695 82.9v5.48h6.36v4.41h-6.36v8.19q0 1.34 0.534 1.83 0.534 0.465 2.12 0.465h3.17v4.41h-5.29q-3.65 0-5.19-1.52-1.52-1.53-1.52-5.19v-8.19h-3.07v-4.41h3.07v-5.48z"/>
		<path d="m714 92.4q-2.05 0-3.14 1.48-1.07 1.47-1.07 4.24 0 2.77 1.07 4.26 1.09 1.47 3.14 1.47 2.02 0 3.09-1.47 1.07-1.48 1.07-4.26 0-2.77-1.07-4.24-1.07-1.48-3.09-1.48zm0-4.41q4.98 0 7.77 2.69 2.81 2.69 2.81 7.45 0 4.76-2.81 7.45-2.79 2.69-7.77 2.69-5 0-7.82-2.69-2.81-2.69-2.81-7.45 0-4.76 2.81-7.45 2.83-2.69 7.82-2.69z"/>
		<path d="m744 93.7q-0.81-0.379-1.62-0.552-0.793-0.19-1.6-0.19-2.38 0-3.67 1.53-1.28 1.52-1.28 4.36v8.89h-6.17v-19.3h6.17v3.17q1.19-1.9 2.72-2.76 1.55-0.879 3.71-0.879 0.31 0 0.672 0.0345 0.362 0.0172 1.05 0.103z"/>
		<path d="m766 98v1.76h-14.4q0.224 2.17 1.57 3.26 1.34 1.09 3.76 1.09 1.95 0 3.98-0.569 2.05-0.586 4.21-1.76v4.76q-2.19 0.827-4.38 1.24-2.19 0.431-4.38 0.431-5.24 0-8.15-2.65-2.9-2.67-2.9-7.48 0-4.72 2.84-7.43 2.86-2.71 7.86-2.71 4.55 0 7.27 2.74 2.74 2.74 2.74 7.33zm-6.34-2.05q0-1.76-1.03-2.83-1.02-1.09-2.67-1.09-1.79 0-2.91 1.02-1.12 1-1.4 2.9z"/>
	</g>
	<g transform="matrix(.894 0 0 1 54.7 -.0206)" stroke="url(#gr)" stroke-linecap="round" stroke-linejoin="round">
		<path d="m117 110 18-20" stroke-width="9"/>
		<path d="m84.5 109 16-17.8" stroke-width="8"/>
		<path d="m55.8 107 13.3-14.8" stroke-width="6.67"/>
		<path d="m31.2 106 10.7-11.9" stroke-width="5.33"/>
		<path d="m13 103 6-6.67" stroke-width="3"/>
	</g>
	<g transform="matrix(.894 0 0 1 54.7 -.0206)" stroke="url(#gr)" stroke-linecap="round" stroke-linejoin="round">
		<path d="m752 110 18-20" stroke-width="9"/>
		<path d="m787 109 16-17.8" stroke-width="8"/>
		<path d="m818 107 13.3-14.8" stroke-width="6.67"/>
		<path d="m846 106 10.7-11.9" stroke-width="5.33"/>
		<path d="m868 103 6-6.67" stroke-width="3"/>
	</g>
</svg>
